<svg width="28" height="28" viewBox="0 0 28 28" fill="none" xmlns="http://www.w3.org/2000/svg">
<path d="M11.3551 9.625L9.91932 12.75L9.46591 13.9875L9.03139 12.75L7.5767 9.625H5.6875V18.375H7.5767V13.375L7.42557 12.125L7.97344 13.375L9.46591 16.2687L10.9584 13.375L11.5062 12.125L11.3551 13.375V18.375H13.2443V9.625H11.3551Z" fill="#F4F4F4"/>
<path fill-rule="evenodd" clip-rule="evenodd" d="M17.7309 17.4353V9.625H19.3371V17.4353H17.7309Z" fill="#F4F4F4"/>
<path fill-rule="evenodd" clip-rule="evenodd" d="M22.3124 14.5298L18.7634 18.1501L18.534 17.8178L17.7309 16.6543L21.28 13.034L22.3124 14.5298Z" fill="#F4F4F4"/>
<path fill-rule="evenodd" clip-rule="evenodd" d="M19.3371 16.6542L15.7881 13.034L14.7556 14.5298L18.3047 18.15L18.534 17.8178L19.3371 16.6542Z" fill="#F4F4F4"/>
<path d="M18.7634 18.1501L18.534 17.8178L18.3047 18.15L18.5365 18.375L18.7634 18.1501Z" fill="#F4F4F4"/>
<path d="M24.5 22.75H3.5C3.03587 22.75 2.59075 22.5656 2.26256 22.2374C1.93437 21.9092 1.75 21.4641 1.75 21V7C1.75 6.53587 1.93437 6.09075 2.26256 5.76256C2.59075 5.43437 3.03587 5.25 3.5 5.25H24.5C24.9641 5.25 25.4092 5.43437 25.7374 5.76256C26.0656 6.09075 26.25 6.53587 26.25 7V21C26.25 21.4641 26.0656 21.9092 25.7374 22.2374C25.4092 22.5656 24.9641 22.75 24.5 22.75ZM3.5 7V21H24.5V7H3.5Z" fill="#F4F4F4"/>
</svg>
