<svg width="28" height="28" viewBox="0 0 28 28" fill="none" xmlns="http://www.w3.org/2000/svg">
<path d="M4.06519 10.8605H6.36189V18.3605H7.89302V10.8605H10.1897V9.61047H4.06519V10.8605Z" fill="#F4F4F4"/>
<path d="M17.6238 10.8605H19.9205V18.3605H21.4516V10.8605H23.7483V9.61047H17.6238V10.8605Z" fill="#F4F4F4"/>
<path d="M16.9692 9.61047H15.438L13.9067 13.3605L12.3755 9.61047H10.8442L12.9497 13.9855L10.8442 18.3605H12.3755L13.9067 14.6105L15.438 18.3605H16.9692L14.8638 13.9855L16.9692 9.61047Z" fill="#F4F4F4"/>
<path d="M24.5 22.75H3.5C3.03587 22.75 2.59075 22.5656 2.26256 22.2374C1.93437 21.9092 1.75 21.4641 1.75 21V7C1.75 6.53587 1.93437 6.09075 2.26256 5.76256C2.59075 5.43437 3.03587 5.25 3.5 5.25H24.5C24.9641 5.25 25.4092 5.43437 25.7374 5.76256C26.0656 6.09075 26.25 6.53587 26.25 7V21C26.25 21.4641 26.0656 21.9092 25.7374 22.2374C25.4092 22.5656 24.9641 22.75 24.5 22.75ZM3.5 7V21H24.5V7H3.5Z" fill="#F4F4F4"/>
</svg>
