<svg width="26" height="18" viewBox="0 0 26 18" fill="none" xmlns="http://www.w3.org/2000/svg">
<path d="M23.5 17.75H2.5C2.03587 17.75 1.59075 17.5656 1.26256 17.2374C0.934374 16.9092 0.75 16.4641 0.75 16V2C0.75 1.53587 0.934374 1.09075 1.26256 0.762563C1.59075 0.434374 2.03587 0.25 2.5 0.25H23.5C23.9641 0.25 24.4092 0.434374 24.7374 0.762563C25.0656 1.09075 25.25 1.53587 25.25 2V16C25.25 16.4641 25.0656 16.9092 24.7374 17.2374C24.4092 17.5656 23.9641 17.75 23.5 17.75ZM2.5 2V16H23.5V2H2.5Z" fill="#F4F4F4"/>
</svg>
